<mxfile host="app.diagrams.net" agent="Mozilla/5.0 (Windows NT 10.0; Win64; x64; rv:136.0) Gecko/20100101 Firefox/136.0" version="26.1.0">
  <diagram name="Page-1" id="HNJ6mNcgDsW-YNhB-kTk">
    <mxGraphModel dx="4325" dy="1325" grid="1" gridSize="10" guides="1" tooltips="1" connect="1" arrows="1" fold="1" page="1" pageScale="1" pageWidth="850" pageHeight="1100" math="0" shadow="0">
      <root>
        <mxCell id="0" />
        <mxCell id="1" parent="0" />
        <mxCell id="z8BJtcq0WtnQSYPv6Kyj-1" value="&lt;p style=&quot;margin:0px;margin-top:4px;text-align:center;&quot;&gt;&lt;i&gt;&amp;lt;&amp;lt;Interface&amp;gt;&amp;gt;&lt;/i&gt;&lt;br&gt;&lt;b&gt;IEbook&lt;/b&gt;&lt;/p&gt;&lt;hr size=&quot;1&quot;&gt;&lt;p style=&quot;margin:0px;margin-left:4px;&quot;&gt;+ Manufacturer: string { get; }&lt;br&gt;+ Model: string { get; }&lt;/p&gt;&lt;p style=&quot;margin:0px;margin-left:4px;&quot;&gt;+ PixelDensity: int { get; }&lt;/p&gt;&lt;hr size=&quot;1&quot;&gt;&lt;p style=&quot;margin:0px;margin-left:4px;&quot;&gt;+ OpenBook(bookName: string): void&lt;/p&gt;&lt;p style=&quot;margin:0px;margin-left:4px;&quot;&gt;+ GetInfo(): string&lt;/p&gt;" style="verticalAlign=top;align=left;overflow=fill;fontSize=12;fontFamily=Helvetica;html=1;" vertex="1" parent="1">
          <mxGeometry x="295" y="110" width="261" height="140" as="geometry" />
        </mxCell>
        <mxCell id="z8BJtcq0WtnQSYPv6Kyj-14" style="edgeStyle=orthogonalEdgeStyle;rounded=0;orthogonalLoop=1;jettySize=auto;html=1;exitX=0.5;exitY=0;exitDx=0;exitDy=0;entryX=0.5;entryY=1;entryDx=0;entryDy=0;dashed=1;endArrow=block;endFill=0;" edge="1" parent="1" source="z8BJtcq0WtnQSYPv6Kyj-2" target="z8BJtcq0WtnQSYPv6Kyj-1">
          <mxGeometry relative="1" as="geometry" />
        </mxCell>
        <mxCell id="z8BJtcq0WtnQSYPv6Kyj-2" value="IproneEbook" style="swimlane;fontStyle=1;align=center;verticalAlign=top;childLayout=stackLayout;horizontal=1;startSize=26;horizontalStack=0;resizeParent=1;resizeParentMax=0;resizeLast=0;collapsible=1;marginBottom=0;fontSize=12;" vertex="1" parent="1">
          <mxGeometry y="310" width="270" height="130" as="geometry">
            <mxRectangle x="-60" y="370" width="140" height="30" as="alternateBounds" />
          </mxGeometry>
        </mxCell>
        <mxCell id="z8BJtcq0WtnQSYPv6Kyj-3" value="+ Manufacturer: string { get; }&#xa;+ Model: string { get; }&#xa;+ PixelDensity: int { get; }" style="text;strokeColor=none;fillColor=none;align=left;verticalAlign=top;spacingLeft=4;spacingRight=4;overflow=hidden;rotatable=0;points=[[0,0.5],[1,0.5]];portConstraint=eastwest;fontSize=12;" vertex="1" parent="z8BJtcq0WtnQSYPv6Kyj-2">
          <mxGeometry y="26" width="270" height="54" as="geometry" />
        </mxCell>
        <mxCell id="z8BJtcq0WtnQSYPv6Kyj-4" value="" style="line;strokeWidth=1;fillColor=none;align=left;verticalAlign=middle;spacingTop=-1;spacingLeft=3;spacingRight=3;rotatable=0;labelPosition=right;points=[];portConstraint=eastwest;strokeColor=inherit;fontSize=16;" vertex="1" parent="z8BJtcq0WtnQSYPv6Kyj-2">
          <mxGeometry y="80" width="270" height="8" as="geometry" />
        </mxCell>
        <mxCell id="z8BJtcq0WtnQSYPv6Kyj-5" value="+ OpenBook(bookName: string): void&#xa;+ GetInfo(): string" style="text;strokeColor=none;fillColor=none;align=left;verticalAlign=top;spacingLeft=4;spacingRight=4;overflow=hidden;rotatable=0;points=[[0,0.5],[1,0.5]];portConstraint=eastwest;fontSize=12;" vertex="1" parent="z8BJtcq0WtnQSYPv6Kyj-2">
          <mxGeometry y="88" width="270" height="42" as="geometry" />
        </mxCell>
        <mxCell id="z8BJtcq0WtnQSYPv6Kyj-15" style="edgeStyle=orthogonalEdgeStyle;rounded=0;orthogonalLoop=1;jettySize=auto;html=1;exitX=0.5;exitY=0;exitDx=0;exitDy=0;entryX=0.5;entryY=1;entryDx=0;entryDy=0;dashed=1;endArrow=block;endFill=0;" edge="1" parent="1" source="z8BJtcq0WtnQSYPv6Kyj-6" target="z8BJtcq0WtnQSYPv6Kyj-1">
          <mxGeometry relative="1" as="geometry" />
        </mxCell>
        <mxCell id="z8BJtcq0WtnQSYPv6Kyj-6" value="BalaxyEbook" style="swimlane;fontStyle=1;align=center;verticalAlign=top;childLayout=stackLayout;horizontal=1;startSize=26;horizontalStack=0;resizeParent=1;resizeParentMax=0;resizeLast=0;collapsible=1;marginBottom=0;fontSize=12;" vertex="1" parent="1">
          <mxGeometry x="290" y="310" width="270" height="130" as="geometry">
            <mxRectangle x="-60" y="370" width="140" height="30" as="alternateBounds" />
          </mxGeometry>
        </mxCell>
        <mxCell id="z8BJtcq0WtnQSYPv6Kyj-7" value="+ Manufacturer: string { get; }&#xa;+ Model: string { get; }&#xa;+ PixelDensity: int { get; }" style="text;strokeColor=none;fillColor=none;align=left;verticalAlign=top;spacingLeft=4;spacingRight=4;overflow=hidden;rotatable=0;points=[[0,0.5],[1,0.5]];portConstraint=eastwest;fontSize=12;" vertex="1" parent="z8BJtcq0WtnQSYPv6Kyj-6">
          <mxGeometry y="26" width="270" height="54" as="geometry" />
        </mxCell>
        <mxCell id="z8BJtcq0WtnQSYPv6Kyj-8" value="" style="line;strokeWidth=1;fillColor=none;align=left;verticalAlign=middle;spacingTop=-1;spacingLeft=3;spacingRight=3;rotatable=0;labelPosition=right;points=[];portConstraint=eastwest;strokeColor=inherit;fontSize=16;" vertex="1" parent="z8BJtcq0WtnQSYPv6Kyj-6">
          <mxGeometry y="80" width="270" height="8" as="geometry" />
        </mxCell>
        <mxCell id="z8BJtcq0WtnQSYPv6Kyj-9" value="+ OpenBook(bookName: string): void&#xa;+ GetInfo(): string" style="text;strokeColor=none;fillColor=none;align=left;verticalAlign=top;spacingLeft=4;spacingRight=4;overflow=hidden;rotatable=0;points=[[0,0.5],[1,0.5]];portConstraint=eastwest;fontSize=12;" vertex="1" parent="z8BJtcq0WtnQSYPv6Kyj-6">
          <mxGeometry y="88" width="270" height="42" as="geometry" />
        </mxCell>
        <mxCell id="z8BJtcq0WtnQSYPv6Kyj-16" style="edgeStyle=orthogonalEdgeStyle;rounded=0;orthogonalLoop=1;jettySize=auto;html=1;exitX=0.5;exitY=0;exitDx=0;exitDy=0;entryX=0.5;entryY=1;entryDx=0;entryDy=0;dashed=1;endArrow=block;endFill=0;" edge="1" parent="1" source="z8BJtcq0WtnQSYPv6Kyj-10" target="z8BJtcq0WtnQSYPv6Kyj-1">
          <mxGeometry relative="1" as="geometry" />
        </mxCell>
        <mxCell id="z8BJtcq0WtnQSYPv6Kyj-10" value="KiaomiEbook" style="swimlane;fontStyle=1;align=center;verticalAlign=top;childLayout=stackLayout;horizontal=1;startSize=26;horizontalStack=0;resizeParent=1;resizeParentMax=0;resizeLast=0;collapsible=1;marginBottom=0;fontSize=12;" vertex="1" parent="1">
          <mxGeometry x="580" y="310" width="270" height="130" as="geometry">
            <mxRectangle x="-60" y="370" width="140" height="30" as="alternateBounds" />
          </mxGeometry>
        </mxCell>
        <mxCell id="z8BJtcq0WtnQSYPv6Kyj-11" value="+ Manufacturer: string { get; }&#xa;+ Model: string { get; }&#xa;+ PixelDensity: int { get; }" style="text;strokeColor=none;fillColor=none;align=left;verticalAlign=top;spacingLeft=4;spacingRight=4;overflow=hidden;rotatable=0;points=[[0,0.5],[1,0.5]];portConstraint=eastwest;fontSize=12;" vertex="1" parent="z8BJtcq0WtnQSYPv6Kyj-10">
          <mxGeometry y="26" width="270" height="54" as="geometry" />
        </mxCell>
        <mxCell id="z8BJtcq0WtnQSYPv6Kyj-12" value="" style="line;strokeWidth=1;fillColor=none;align=left;verticalAlign=middle;spacingTop=-1;spacingLeft=3;spacingRight=3;rotatable=0;labelPosition=right;points=[];portConstraint=eastwest;strokeColor=inherit;fontSize=16;" vertex="1" parent="z8BJtcq0WtnQSYPv6Kyj-10">
          <mxGeometry y="80" width="270" height="8" as="geometry" />
        </mxCell>
        <mxCell id="z8BJtcq0WtnQSYPv6Kyj-13" value="+ OpenBook(bookName: string): void&#xa;+ GetInfo(): string" style="text;strokeColor=none;fillColor=none;align=left;verticalAlign=top;spacingLeft=4;spacingRight=4;overflow=hidden;rotatable=0;points=[[0,0.5],[1,0.5]];portConstraint=eastwest;fontSize=12;" vertex="1" parent="z8BJtcq0WtnQSYPv6Kyj-10">
          <mxGeometry y="88" width="270" height="42" as="geometry" />
        </mxCell>
        <mxCell id="z8BJtcq0WtnQSYPv6Kyj-17" value="&lt;p style=&quot;margin:0px;margin-top:4px;text-align:center;&quot;&gt;&lt;i&gt;&amp;lt;&amp;lt;Interface&amp;gt;&amp;gt;&lt;/i&gt;&lt;br&gt;&lt;b&gt;ILaptop&lt;/b&gt;&lt;/p&gt;&lt;hr size=&quot;1&quot;&gt;&lt;p style=&quot;margin:0px;margin-left:4px;&quot;&gt;+ Manufacturer: string { get; }&lt;br&gt;+ Model: string { get; }&lt;/p&gt;&lt;p style=&quot;margin:0px;margin-left:4px;&quot;&gt;+ ScreenSize: float { get; }&lt;/p&gt;&lt;hr size=&quot;1&quot;&gt;&lt;p style=&quot;margin:0px;margin-left:4px;&quot;&gt;+ InstallOs(OsName: string): void&lt;/p&gt;&lt;p style=&quot;margin:0px;margin-left:4px;&quot;&gt;+ StartWork(): void&lt;/p&gt;&lt;p style=&quot;margin:0px;margin-left:4px;&quot;&gt;+ GetInfo(): string&lt;/p&gt;" style="verticalAlign=top;align=left;overflow=fill;fontSize=12;fontFamily=Helvetica;html=1;" vertex="1" parent="1">
          <mxGeometry x="1204.5" y="85" width="261" height="155" as="geometry" />
        </mxCell>
        <mxCell id="z8BJtcq0WtnQSYPv6Kyj-18" style="edgeStyle=orthogonalEdgeStyle;rounded=0;orthogonalLoop=1;jettySize=auto;html=1;exitX=0.5;exitY=0;exitDx=0;exitDy=0;entryX=0.5;entryY=1;entryDx=0;entryDy=0;dashed=1;endArrow=block;endFill=0;" edge="1" source="z8BJtcq0WtnQSYPv6Kyj-19" target="z8BJtcq0WtnQSYPv6Kyj-17" parent="1">
          <mxGeometry relative="1" as="geometry" />
        </mxCell>
        <mxCell id="z8BJtcq0WtnQSYPv6Kyj-19" value="IproneLaptop" style="swimlane;fontStyle=1;align=center;verticalAlign=top;childLayout=stackLayout;horizontal=1;startSize=26;horizontalStack=0;resizeParent=1;resizeParentMax=0;resizeLast=0;collapsible=1;marginBottom=0;fontSize=12;" vertex="1" parent="1">
          <mxGeometry x="910" y="300" width="270" height="140" as="geometry">
            <mxRectangle x="-60" y="370" width="140" height="30" as="alternateBounds" />
          </mxGeometry>
        </mxCell>
        <mxCell id="z8BJtcq0WtnQSYPv6Kyj-20" value="+ Manufacturer: string { get; }&#xa;+ Model: string { get; }&#xa;+ ScreenSize: float { get; }" style="text;strokeColor=none;fillColor=none;align=left;verticalAlign=top;spacingLeft=4;spacingRight=4;overflow=hidden;rotatable=0;points=[[0,0.5],[1,0.5]];portConstraint=eastwest;fontSize=12;" vertex="1" parent="z8BJtcq0WtnQSYPv6Kyj-19">
          <mxGeometry y="26" width="270" height="54" as="geometry" />
        </mxCell>
        <mxCell id="z8BJtcq0WtnQSYPv6Kyj-21" value="" style="line;strokeWidth=1;fillColor=none;align=left;verticalAlign=middle;spacingTop=-1;spacingLeft=3;spacingRight=3;rotatable=0;labelPosition=right;points=[];portConstraint=eastwest;strokeColor=inherit;fontSize=16;" vertex="1" parent="z8BJtcq0WtnQSYPv6Kyj-19">
          <mxGeometry y="80" width="270" height="8" as="geometry" />
        </mxCell>
        <mxCell id="z8BJtcq0WtnQSYPv6Kyj-22" value="+ InstallOd(OsName: string): void&#xa;+ StartWork(): void&#xa;+ GetInfo(): string" style="text;strokeColor=none;fillColor=none;align=left;verticalAlign=top;spacingLeft=4;spacingRight=4;overflow=hidden;rotatable=0;points=[[0,0.5],[1,0.5]];portConstraint=eastwest;fontSize=12;" vertex="1" parent="z8BJtcq0WtnQSYPv6Kyj-19">
          <mxGeometry y="88" width="270" height="52" as="geometry" />
        </mxCell>
        <mxCell id="z8BJtcq0WtnQSYPv6Kyj-23" style="edgeStyle=orthogonalEdgeStyle;rounded=0;orthogonalLoop=1;jettySize=auto;html=1;exitX=0.5;exitY=0;exitDx=0;exitDy=0;entryX=0.5;entryY=1;entryDx=0;entryDy=0;dashed=1;endArrow=block;endFill=0;" edge="1" source="z8BJtcq0WtnQSYPv6Kyj-24" target="z8BJtcq0WtnQSYPv6Kyj-17" parent="1">
          <mxGeometry relative="1" as="geometry" />
        </mxCell>
        <mxCell id="z8BJtcq0WtnQSYPv6Kyj-24" value="BalaxyLaptop" style="swimlane;fontStyle=1;align=center;verticalAlign=top;childLayout=stackLayout;horizontal=1;startSize=26;horizontalStack=0;resizeParent=1;resizeParentMax=0;resizeLast=0;collapsible=1;marginBottom=0;fontSize=12;" vertex="1" parent="1">
          <mxGeometry x="1200" y="300" width="270" height="140" as="geometry">
            <mxRectangle x="-60" y="370" width="140" height="30" as="alternateBounds" />
          </mxGeometry>
        </mxCell>
        <mxCell id="z8BJtcq0WtnQSYPv6Kyj-25" value="+ Manufacturer: string { get; }&#xa;+ Model: string { get; }&#xa;+ ScreenSize: float { get; }" style="text;strokeColor=none;fillColor=none;align=left;verticalAlign=top;spacingLeft=4;spacingRight=4;overflow=hidden;rotatable=0;points=[[0,0.5],[1,0.5]];portConstraint=eastwest;fontSize=12;" vertex="1" parent="z8BJtcq0WtnQSYPv6Kyj-24">
          <mxGeometry y="26" width="270" height="54" as="geometry" />
        </mxCell>
        <mxCell id="z8BJtcq0WtnQSYPv6Kyj-26" value="" style="line;strokeWidth=1;fillColor=none;align=left;verticalAlign=middle;spacingTop=-1;spacingLeft=3;spacingRight=3;rotatable=0;labelPosition=right;points=[];portConstraint=eastwest;strokeColor=inherit;fontSize=16;" vertex="1" parent="z8BJtcq0WtnQSYPv6Kyj-24">
          <mxGeometry y="80" width="270" height="8" as="geometry" />
        </mxCell>
        <mxCell id="z8BJtcq0WtnQSYPv6Kyj-27" value="+ InstallOd(OsName: string): void&#xa;+ StartWork(): void&#xa;+ GetInfo(): string" style="text;strokeColor=none;fillColor=none;align=left;verticalAlign=top;spacingLeft=4;spacingRight=4;overflow=hidden;rotatable=0;points=[[0,0.5],[1,0.5]];portConstraint=eastwest;fontSize=12;" vertex="1" parent="z8BJtcq0WtnQSYPv6Kyj-24">
          <mxGeometry y="88" width="270" height="52" as="geometry" />
        </mxCell>
        <mxCell id="z8BJtcq0WtnQSYPv6Kyj-28" style="edgeStyle=orthogonalEdgeStyle;rounded=0;orthogonalLoop=1;jettySize=auto;html=1;exitX=0.5;exitY=0;exitDx=0;exitDy=0;entryX=0.5;entryY=1;entryDx=0;entryDy=0;dashed=1;endArrow=block;endFill=0;" edge="1" source="z8BJtcq0WtnQSYPv6Kyj-29" target="z8BJtcq0WtnQSYPv6Kyj-17" parent="1">
          <mxGeometry relative="1" as="geometry" />
        </mxCell>
        <mxCell id="z8BJtcq0WtnQSYPv6Kyj-29" value="KiaomiLaptop" style="swimlane;fontStyle=1;align=center;verticalAlign=top;childLayout=stackLayout;horizontal=1;startSize=26;horizontalStack=0;resizeParent=1;resizeParentMax=0;resizeLast=0;collapsible=1;marginBottom=0;fontSize=12;" vertex="1" parent="1">
          <mxGeometry x="1490" y="300" width="270" height="140" as="geometry">
            <mxRectangle x="-60" y="370" width="140" height="30" as="alternateBounds" />
          </mxGeometry>
        </mxCell>
        <mxCell id="z8BJtcq0WtnQSYPv6Kyj-30" value="+ Manufacturer: string { get; }&#xa;+ Model: string { get; }&#xa;+ ScreenSize: float { get; }" style="text;strokeColor=none;fillColor=none;align=left;verticalAlign=top;spacingLeft=4;spacingRight=4;overflow=hidden;rotatable=0;points=[[0,0.5],[1,0.5]];portConstraint=eastwest;fontSize=12;" vertex="1" parent="z8BJtcq0WtnQSYPv6Kyj-29">
          <mxGeometry y="26" width="270" height="54" as="geometry" />
        </mxCell>
        <mxCell id="z8BJtcq0WtnQSYPv6Kyj-31" value="" style="line;strokeWidth=1;fillColor=none;align=left;verticalAlign=middle;spacingTop=-1;spacingLeft=3;spacingRight=3;rotatable=0;labelPosition=right;points=[];portConstraint=eastwest;strokeColor=inherit;fontSize=16;" vertex="1" parent="z8BJtcq0WtnQSYPv6Kyj-29">
          <mxGeometry y="80" width="270" height="8" as="geometry" />
        </mxCell>
        <mxCell id="z8BJtcq0WtnQSYPv6Kyj-32" value="+ InstallOd(OsName: string): void&#xa;+ StartWork(): void&#xa;+ GetInfo(): string" style="text;strokeColor=none;fillColor=none;align=left;verticalAlign=top;spacingLeft=4;spacingRight=4;overflow=hidden;rotatable=0;points=[[0,0.5],[1,0.5]];portConstraint=eastwest;fontSize=12;" vertex="1" parent="z8BJtcq0WtnQSYPv6Kyj-29">
          <mxGeometry y="88" width="270" height="52" as="geometry" />
        </mxCell>
        <mxCell id="z8BJtcq0WtnQSYPv6Kyj-33" value="&lt;p style=&quot;margin:0px;margin-top:4px;text-align:center;&quot;&gt;&lt;i&gt;&amp;lt;&amp;lt;Interface&amp;gt;&amp;gt;&lt;/i&gt;&lt;br&gt;&lt;b&gt;INetbook&lt;/b&gt;&lt;/p&gt;&lt;hr size=&quot;1&quot;&gt;&lt;p style=&quot;margin:0px;margin-left:4px;&quot;&gt;+ Manufacturer: string { get; }&lt;br&gt;+ Model: string { get; }&lt;/p&gt;&lt;p style=&quot;margin:0px;margin-left:4px;&quot;&gt;+ BatterySize: int { get; }&lt;/p&gt;&lt;p style=&quot;margin:0px;margin-left:4px;&quot;&gt;+ InstalledSoftware: List&amp;lt;string&amp;gt; { get; }&lt;/p&gt;&lt;hr size=&quot;1&quot;&gt;&lt;p style=&quot;margin:0px;margin-left:4px;&quot;&gt;+ InstallSoftware(softwareName: string): void&lt;/p&gt;&lt;p style=&quot;margin:0px;margin-left:4px;&quot;&gt;+ ConnectToInternet(): void&lt;/p&gt;&lt;p style=&quot;margin:0px;margin-left:4px;&quot;&gt;+ GetInfo(): string&lt;/p&gt;" style="verticalAlign=top;align=left;overflow=fill;fontSize=12;fontFamily=Helvetica;html=1;" vertex="1" parent="1">
          <mxGeometry x="1204.5" y="480" width="261" height="170" as="geometry" />
        </mxCell>
        <mxCell id="z8BJtcq0WtnQSYPv6Kyj-34" style="edgeStyle=orthogonalEdgeStyle;rounded=0;orthogonalLoop=1;jettySize=auto;html=1;exitX=0.5;exitY=0;exitDx=0;exitDy=0;entryX=0.5;entryY=1;entryDx=0;entryDy=0;dashed=1;endArrow=block;endFill=0;" edge="1" source="z8BJtcq0WtnQSYPv6Kyj-35" target="z8BJtcq0WtnQSYPv6Kyj-33" parent="1">
          <mxGeometry relative="1" as="geometry" />
        </mxCell>
        <mxCell id="z8BJtcq0WtnQSYPv6Kyj-35" value="IproneNetbook" style="swimlane;fontStyle=1;align=center;verticalAlign=top;childLayout=stackLayout;horizontal=1;startSize=26;horizontalStack=0;resizeParent=1;resizeParentMax=0;resizeLast=0;collapsible=1;marginBottom=0;fontSize=12;" vertex="1" parent="1">
          <mxGeometry x="910" y="705" width="270" height="150" as="geometry">
            <mxRectangle x="-60" y="370" width="140" height="30" as="alternateBounds" />
          </mxGeometry>
        </mxCell>
        <mxCell id="z8BJtcq0WtnQSYPv6Kyj-36" value="+ Manufacturer: string { get; }&#xa;+ Model: string { get; }&#xa;+ BatterySize: int { get; }&#xa;+ InstalledSoftware: List&lt;string&gt; { get; }" style="text;strokeColor=none;fillColor=none;align=left;verticalAlign=top;spacingLeft=4;spacingRight=4;overflow=hidden;rotatable=0;points=[[0,0.5],[1,0.5]];portConstraint=eastwest;fontSize=12;" vertex="1" parent="z8BJtcq0WtnQSYPv6Kyj-35">
          <mxGeometry y="26" width="270" height="64" as="geometry" />
        </mxCell>
        <mxCell id="z8BJtcq0WtnQSYPv6Kyj-37" value="" style="line;strokeWidth=1;fillColor=none;align=left;verticalAlign=middle;spacingTop=-1;spacingLeft=3;spacingRight=3;rotatable=0;labelPosition=right;points=[];portConstraint=eastwest;strokeColor=inherit;fontSize=16;" vertex="1" parent="z8BJtcq0WtnQSYPv6Kyj-35">
          <mxGeometry y="90" width="270" height="8" as="geometry" />
        </mxCell>
        <mxCell id="z8BJtcq0WtnQSYPv6Kyj-38" value="+ InstallSoftware(softwareName: string): void&#xa;+ ConnectToInternet(): void&#xa;+ GetInfo(): string" style="text;strokeColor=none;fillColor=none;align=left;verticalAlign=top;spacingLeft=4;spacingRight=4;overflow=hidden;rotatable=0;points=[[0,0.5],[1,0.5]];portConstraint=eastwest;fontSize=12;" vertex="1" parent="z8BJtcq0WtnQSYPv6Kyj-35">
          <mxGeometry y="98" width="270" height="52" as="geometry" />
        </mxCell>
        <mxCell id="z8BJtcq0WtnQSYPv6Kyj-39" style="edgeStyle=orthogonalEdgeStyle;rounded=0;orthogonalLoop=1;jettySize=auto;html=1;exitX=0.5;exitY=0;exitDx=0;exitDy=0;entryX=0.5;entryY=1;entryDx=0;entryDy=0;dashed=1;endArrow=block;endFill=0;" edge="1" source="z8BJtcq0WtnQSYPv6Kyj-40" target="z8BJtcq0WtnQSYPv6Kyj-33" parent="1">
          <mxGeometry relative="1" as="geometry" />
        </mxCell>
        <mxCell id="z8BJtcq0WtnQSYPv6Kyj-40" value="BalaxyNetbook" style="swimlane;fontStyle=1;align=center;verticalAlign=top;childLayout=stackLayout;horizontal=1;startSize=26;horizontalStack=0;resizeParent=1;resizeParentMax=0;resizeLast=0;collapsible=1;marginBottom=0;fontSize=12;" vertex="1" parent="1">
          <mxGeometry x="1200" y="705" width="270" height="150" as="geometry">
            <mxRectangle x="-60" y="370" width="140" height="30" as="alternateBounds" />
          </mxGeometry>
        </mxCell>
        <mxCell id="z8BJtcq0WtnQSYPv6Kyj-41" value="+ Manufacturer: string { get; }&#xa;+ Model: string { get; }&#xa;+ BatterySize: int { get; }&#xa;+ InstalledSoftware: List&lt;string&gt; { get; }" style="text;strokeColor=none;fillColor=none;align=left;verticalAlign=top;spacingLeft=4;spacingRight=4;overflow=hidden;rotatable=0;points=[[0,0.5],[1,0.5]];portConstraint=eastwest;fontSize=12;" vertex="1" parent="z8BJtcq0WtnQSYPv6Kyj-40">
          <mxGeometry y="26" width="270" height="64" as="geometry" />
        </mxCell>
        <mxCell id="z8BJtcq0WtnQSYPv6Kyj-42" value="" style="line;strokeWidth=1;fillColor=none;align=left;verticalAlign=middle;spacingTop=-1;spacingLeft=3;spacingRight=3;rotatable=0;labelPosition=right;points=[];portConstraint=eastwest;strokeColor=inherit;fontSize=16;" vertex="1" parent="z8BJtcq0WtnQSYPv6Kyj-40">
          <mxGeometry y="90" width="270" height="8" as="geometry" />
        </mxCell>
        <mxCell id="z8BJtcq0WtnQSYPv6Kyj-43" value="+ InstallSoftware(softwareName: string): void&#xa;+ ConnectToInternet(): void&#xa;+ GetInfo(): string" style="text;strokeColor=none;fillColor=none;align=left;verticalAlign=top;spacingLeft=4;spacingRight=4;overflow=hidden;rotatable=0;points=[[0,0.5],[1,0.5]];portConstraint=eastwest;fontSize=12;" vertex="1" parent="z8BJtcq0WtnQSYPv6Kyj-40">
          <mxGeometry y="98" width="270" height="52" as="geometry" />
        </mxCell>
        <mxCell id="z8BJtcq0WtnQSYPv6Kyj-44" style="edgeStyle=orthogonalEdgeStyle;rounded=0;orthogonalLoop=1;jettySize=auto;html=1;exitX=0.5;exitY=0;exitDx=0;exitDy=0;entryX=0.5;entryY=1;entryDx=0;entryDy=0;dashed=1;endArrow=block;endFill=0;" edge="1" source="z8BJtcq0WtnQSYPv6Kyj-45" target="z8BJtcq0WtnQSYPv6Kyj-33" parent="1">
          <mxGeometry relative="1" as="geometry" />
        </mxCell>
        <mxCell id="z8BJtcq0WtnQSYPv6Kyj-45" value="KiaomiNetbook" style="swimlane;fontStyle=1;align=center;verticalAlign=top;childLayout=stackLayout;horizontal=1;startSize=26;horizontalStack=0;resizeParent=1;resizeParentMax=0;resizeLast=0;collapsible=1;marginBottom=0;fontSize=12;" vertex="1" parent="1">
          <mxGeometry x="1490" y="705" width="270" height="150" as="geometry">
            <mxRectangle x="-60" y="370" width="140" height="30" as="alternateBounds" />
          </mxGeometry>
        </mxCell>
        <mxCell id="z8BJtcq0WtnQSYPv6Kyj-46" value="+ Manufacturer: string { get; }&#xa;+ Model: string { get; }&#xa;+ BatterySize: int { get; }&#xa;+ InstalledSoftware: List&lt;string&gt; { get; }" style="text;strokeColor=none;fillColor=none;align=left;verticalAlign=top;spacingLeft=4;spacingRight=4;overflow=hidden;rotatable=0;points=[[0,0.5],[1,0.5]];portConstraint=eastwest;fontSize=12;" vertex="1" parent="z8BJtcq0WtnQSYPv6Kyj-45">
          <mxGeometry y="26" width="270" height="64" as="geometry" />
        </mxCell>
        <mxCell id="z8BJtcq0WtnQSYPv6Kyj-47" value="" style="line;strokeWidth=1;fillColor=none;align=left;verticalAlign=middle;spacingTop=-1;spacingLeft=3;spacingRight=3;rotatable=0;labelPosition=right;points=[];portConstraint=eastwest;strokeColor=inherit;fontSize=16;" vertex="1" parent="z8BJtcq0WtnQSYPv6Kyj-45">
          <mxGeometry y="90" width="270" height="8" as="geometry" />
        </mxCell>
        <mxCell id="z8BJtcq0WtnQSYPv6Kyj-48" value="+ InstallSoftware(softwareName: string): void&#xa;+ ConnectToInternet(): void&#xa;+ GetInfo(): string" style="text;strokeColor=none;fillColor=none;align=left;verticalAlign=top;spacingLeft=4;spacingRight=4;overflow=hidden;rotatable=0;points=[[0,0.5],[1,0.5]];portConstraint=eastwest;fontSize=12;" vertex="1" parent="z8BJtcq0WtnQSYPv6Kyj-45">
          <mxGeometry y="98" width="270" height="52" as="geometry" />
        </mxCell>
        <mxCell id="z8BJtcq0WtnQSYPv6Kyj-49" value="&lt;p style=&quot;margin:0px;margin-top:4px;text-align:center;&quot;&gt;&lt;i&gt;&amp;lt;&amp;lt;Interface&amp;gt;&amp;gt;&lt;/i&gt;&lt;br&gt;&lt;b&gt;ISmartphone&lt;/b&gt;&lt;/p&gt;&lt;hr size=&quot;1&quot;&gt;&lt;p style=&quot;margin:0px;margin-left:4px;&quot;&gt;+ Manufacturer: string { get; }&lt;br&gt;+ Model: string { get; }&lt;/p&gt;&lt;p style=&quot;margin:0px;margin-left:4px;&quot;&gt;+ DisplayType: string { get; }&lt;/p&gt;&lt;hr size=&quot;1&quot;&gt;&lt;p style=&quot;margin:0px;margin-left:4px;&quot;&gt;+ OpenCamera(): void&lt;/p&gt;&lt;p style=&quot;margin:0px;margin-left:4px;&quot;&gt;+ MakeCall(phoneNumber: string): void&lt;/p&gt;&lt;p style=&quot;margin:0px;margin-left:4px;&quot;&gt;+ GetInfo(): string&lt;/p&gt;" style="verticalAlign=top;align=left;overflow=fill;fontSize=12;fontFamily=Helvetica;html=1;" vertex="1" parent="1">
          <mxGeometry x="295" y="500" width="261" height="150" as="geometry" />
        </mxCell>
        <mxCell id="z8BJtcq0WtnQSYPv6Kyj-50" style="edgeStyle=orthogonalEdgeStyle;rounded=0;orthogonalLoop=1;jettySize=auto;html=1;exitX=0.5;exitY=0;exitDx=0;exitDy=0;entryX=0.5;entryY=1;entryDx=0;entryDy=0;dashed=1;endArrow=block;endFill=0;" edge="1" source="z8BJtcq0WtnQSYPv6Kyj-51" target="z8BJtcq0WtnQSYPv6Kyj-49" parent="1">
          <mxGeometry relative="1" as="geometry" />
        </mxCell>
        <mxCell id="z8BJtcq0WtnQSYPv6Kyj-51" value="IproneSmartphone" style="swimlane;fontStyle=1;align=center;verticalAlign=top;childLayout=stackLayout;horizontal=1;startSize=26;horizontalStack=0;resizeParent=1;resizeParentMax=0;resizeLast=0;collapsible=1;marginBottom=0;fontSize=12;" vertex="1" parent="1">
          <mxGeometry y="705" width="270" height="140" as="geometry">
            <mxRectangle x="-60" y="370" width="140" height="30" as="alternateBounds" />
          </mxGeometry>
        </mxCell>
        <mxCell id="z8BJtcq0WtnQSYPv6Kyj-52" value="+ Manufacturer: string { get; }&#xa;+ Model: string { get; }&#xa;+ DisplayType: string { get; }" style="text;strokeColor=none;fillColor=none;align=left;verticalAlign=top;spacingLeft=4;spacingRight=4;overflow=hidden;rotatable=0;points=[[0,0.5],[1,0.5]];portConstraint=eastwest;fontSize=12;" vertex="1" parent="z8BJtcq0WtnQSYPv6Kyj-51">
          <mxGeometry y="26" width="270" height="54" as="geometry" />
        </mxCell>
        <mxCell id="z8BJtcq0WtnQSYPv6Kyj-53" value="" style="line;strokeWidth=1;fillColor=none;align=left;verticalAlign=middle;spacingTop=-1;spacingLeft=3;spacingRight=3;rotatable=0;labelPosition=right;points=[];portConstraint=eastwest;strokeColor=inherit;fontSize=16;" vertex="1" parent="z8BJtcq0WtnQSYPv6Kyj-51">
          <mxGeometry y="80" width="270" height="8" as="geometry" />
        </mxCell>
        <mxCell id="z8BJtcq0WtnQSYPv6Kyj-54" value="+ OpenCamera(): void&#xa;+ MakeCall(phoneNumber: string): void&#xa;+ GetInfo(): string" style="text;strokeColor=none;fillColor=none;align=left;verticalAlign=top;spacingLeft=4;spacingRight=4;overflow=hidden;rotatable=0;points=[[0,0.5],[1,0.5]];portConstraint=eastwest;fontSize=12;" vertex="1" parent="z8BJtcq0WtnQSYPv6Kyj-51">
          <mxGeometry y="88" width="270" height="52" as="geometry" />
        </mxCell>
        <mxCell id="z8BJtcq0WtnQSYPv6Kyj-55" style="edgeStyle=orthogonalEdgeStyle;rounded=0;orthogonalLoop=1;jettySize=auto;html=1;exitX=0.5;exitY=0;exitDx=0;exitDy=0;entryX=0.5;entryY=1;entryDx=0;entryDy=0;dashed=1;endArrow=block;endFill=0;" edge="1" source="z8BJtcq0WtnQSYPv6Kyj-56" target="z8BJtcq0WtnQSYPv6Kyj-49" parent="1">
          <mxGeometry relative="1" as="geometry" />
        </mxCell>
        <mxCell id="z8BJtcq0WtnQSYPv6Kyj-56" value="BalaxySmartphone" style="swimlane;fontStyle=1;align=center;verticalAlign=top;childLayout=stackLayout;horizontal=1;startSize=26;horizontalStack=0;resizeParent=1;resizeParentMax=0;resizeLast=0;collapsible=1;marginBottom=0;fontSize=12;" vertex="1" parent="1">
          <mxGeometry x="290" y="705" width="270" height="140" as="geometry">
            <mxRectangle x="-60" y="370" width="140" height="30" as="alternateBounds" />
          </mxGeometry>
        </mxCell>
        <mxCell id="z8BJtcq0WtnQSYPv6Kyj-57" value="+ Manufacturer: string { get; }&#xa;+ Model: string { get; }&#xa;+ DisplayType: string { get; }" style="text;strokeColor=none;fillColor=none;align=left;verticalAlign=top;spacingLeft=4;spacingRight=4;overflow=hidden;rotatable=0;points=[[0,0.5],[1,0.5]];portConstraint=eastwest;fontSize=12;" vertex="1" parent="z8BJtcq0WtnQSYPv6Kyj-56">
          <mxGeometry y="26" width="270" height="54" as="geometry" />
        </mxCell>
        <mxCell id="z8BJtcq0WtnQSYPv6Kyj-58" value="" style="line;strokeWidth=1;fillColor=none;align=left;verticalAlign=middle;spacingTop=-1;spacingLeft=3;spacingRight=3;rotatable=0;labelPosition=right;points=[];portConstraint=eastwest;strokeColor=inherit;fontSize=16;" vertex="1" parent="z8BJtcq0WtnQSYPv6Kyj-56">
          <mxGeometry y="80" width="270" height="8" as="geometry" />
        </mxCell>
        <mxCell id="z8BJtcq0WtnQSYPv6Kyj-59" value="+ OpenCamera(): void&#xa;+ MakeCall(phoneNumber: string): void&#xa;+ GetInfo(): string" style="text;strokeColor=none;fillColor=none;align=left;verticalAlign=top;spacingLeft=4;spacingRight=4;overflow=hidden;rotatable=0;points=[[0,0.5],[1,0.5]];portConstraint=eastwest;fontSize=12;" vertex="1" parent="z8BJtcq0WtnQSYPv6Kyj-56">
          <mxGeometry y="88" width="270" height="52" as="geometry" />
        </mxCell>
        <mxCell id="z8BJtcq0WtnQSYPv6Kyj-60" style="edgeStyle=orthogonalEdgeStyle;rounded=0;orthogonalLoop=1;jettySize=auto;html=1;exitX=0.5;exitY=0;exitDx=0;exitDy=0;entryX=0.5;entryY=1;entryDx=0;entryDy=0;dashed=1;endArrow=block;endFill=0;" edge="1" source="z8BJtcq0WtnQSYPv6Kyj-61" target="z8BJtcq0WtnQSYPv6Kyj-49" parent="1">
          <mxGeometry relative="1" as="geometry" />
        </mxCell>
        <mxCell id="z8BJtcq0WtnQSYPv6Kyj-61" value="KiaomiSmartphone" style="swimlane;fontStyle=1;align=center;verticalAlign=top;childLayout=stackLayout;horizontal=1;startSize=26;horizontalStack=0;resizeParent=1;resizeParentMax=0;resizeLast=0;collapsible=1;marginBottom=0;fontSize=12;" vertex="1" parent="1">
          <mxGeometry x="580" y="705" width="270" height="140" as="geometry">
            <mxRectangle x="-60" y="370" width="140" height="30" as="alternateBounds" />
          </mxGeometry>
        </mxCell>
        <mxCell id="z8BJtcq0WtnQSYPv6Kyj-62" value="+ Manufacturer: string { get; }&#xa;+ Model: string { get; }&#xa;+ DisplayType: string { get; }" style="text;strokeColor=none;fillColor=none;align=left;verticalAlign=top;spacingLeft=4;spacingRight=4;overflow=hidden;rotatable=0;points=[[0,0.5],[1,0.5]];portConstraint=eastwest;fontSize=12;" vertex="1" parent="z8BJtcq0WtnQSYPv6Kyj-61">
          <mxGeometry y="26" width="270" height="54" as="geometry" />
        </mxCell>
        <mxCell id="z8BJtcq0WtnQSYPv6Kyj-63" value="" style="line;strokeWidth=1;fillColor=none;align=left;verticalAlign=middle;spacingTop=-1;spacingLeft=3;spacingRight=3;rotatable=0;labelPosition=right;points=[];portConstraint=eastwest;strokeColor=inherit;fontSize=16;" vertex="1" parent="z8BJtcq0WtnQSYPv6Kyj-61">
          <mxGeometry y="80" width="270" height="8" as="geometry" />
        </mxCell>
        <mxCell id="z8BJtcq0WtnQSYPv6Kyj-64" value="+ OpenCamera(): void&#xa;+ MakeCall(phoneNumber: string): void&#xa;+ GetInfo(): string" style="text;strokeColor=none;fillColor=none;align=left;verticalAlign=top;spacingLeft=4;spacingRight=4;overflow=hidden;rotatable=0;points=[[0,0.5],[1,0.5]];portConstraint=eastwest;fontSize=12;" vertex="1" parent="z8BJtcq0WtnQSYPv6Kyj-61">
          <mxGeometry y="88" width="270" height="52" as="geometry" />
        </mxCell>
        <mxCell id="z8BJtcq0WtnQSYPv6Kyj-66" value="&lt;p style=&quot;margin:0px;margin-top:4px;text-align:center;&quot;&gt;&lt;i&gt;&amp;lt;&amp;lt;Interface&amp;gt;&amp;gt;&lt;/i&gt;&lt;br&gt;&lt;b&gt;IDeviceCreator&lt;/b&gt;&lt;/p&gt;&lt;hr size=&quot;1&quot;&gt;&lt;p style=&quot;margin:0px;margin-left:4px;&quot;&gt;+ CreateLaptop(): ILaptop&lt;/p&gt;&lt;p style=&quot;margin:0px;margin-left:4px;&quot;&gt;+ CreateNetbook(): INetbook&lt;/p&gt;&lt;p style=&quot;margin:0px;margin-left:4px;&quot;&gt;+ CreateEbook(): IEbook&lt;/p&gt;&lt;p style=&quot;margin:0px;margin-left:4px;&quot;&gt;+ CreateSmartphone(): ISmartphone&lt;/p&gt;" style="verticalAlign=top;align=left;overflow=fill;fontSize=12;fontFamily=Helvetica;html=1;" vertex="1" parent="1">
          <mxGeometry x="-605.5" y="140" width="261" height="110" as="geometry" />
        </mxCell>
        <mxCell id="z8BJtcq0WtnQSYPv6Kyj-67" style="edgeStyle=orthogonalEdgeStyle;rounded=0;orthogonalLoop=1;jettySize=auto;html=1;exitX=0.5;exitY=0;exitDx=0;exitDy=0;entryX=0.5;entryY=1;entryDx=0;entryDy=0;dashed=1;endArrow=block;endFill=0;" edge="1" source="z8BJtcq0WtnQSYPv6Kyj-68" target="z8BJtcq0WtnQSYPv6Kyj-66" parent="1">
          <mxGeometry relative="1" as="geometry" />
        </mxCell>
        <mxCell id="z8BJtcq0WtnQSYPv6Kyj-68" value="IproneCreator" style="swimlane;fontStyle=1;align=center;verticalAlign=top;childLayout=stackLayout;horizontal=1;startSize=26;horizontalStack=0;resizeParent=1;resizeParentMax=0;resizeLast=0;collapsible=1;marginBottom=0;fontSize=12;" vertex="1" parent="1">
          <mxGeometry x="-900" y="310" width="270" height="100" as="geometry">
            <mxRectangle x="-60" y="370" width="140" height="30" as="alternateBounds" />
          </mxGeometry>
        </mxCell>
        <mxCell id="z8BJtcq0WtnQSYPv6Kyj-70" value="" style="line;strokeWidth=1;fillColor=none;align=left;verticalAlign=middle;spacingTop=-1;spacingLeft=3;spacingRight=3;rotatable=0;labelPosition=right;points=[];portConstraint=eastwest;strokeColor=inherit;fontSize=16;" vertex="1" parent="z8BJtcq0WtnQSYPv6Kyj-68">
          <mxGeometry y="26" width="270" height="8" as="geometry" />
        </mxCell>
        <mxCell id="z8BJtcq0WtnQSYPv6Kyj-71" value="+ CreateLaptop(): ILaptop&#xa;+ CreateNetbook(): INetbook&#xa;+ CreateEbook(): IEbook&#xa;+ CreateSmartphone(): ISmartphone" style="text;strokeColor=none;fillColor=none;align=left;verticalAlign=top;spacingLeft=4;spacingRight=4;overflow=hidden;rotatable=0;points=[[0,0.5],[1,0.5]];portConstraint=eastwest;fontSize=12;" vertex="1" parent="z8BJtcq0WtnQSYPv6Kyj-68">
          <mxGeometry y="34" width="270" height="66" as="geometry" />
        </mxCell>
        <mxCell id="z8BJtcq0WtnQSYPv6Kyj-72" style="edgeStyle=orthogonalEdgeStyle;rounded=0;orthogonalLoop=1;jettySize=auto;html=1;exitX=0.5;exitY=0;exitDx=0;exitDy=0;entryX=0.5;entryY=1;entryDx=0;entryDy=0;dashed=1;endArrow=block;endFill=0;" edge="1" source="z8BJtcq0WtnQSYPv6Kyj-73" target="z8BJtcq0WtnQSYPv6Kyj-66" parent="1">
          <mxGeometry relative="1" as="geometry" />
        </mxCell>
        <mxCell id="z8BJtcq0WtnQSYPv6Kyj-73" value="BalaxyCreator" style="swimlane;fontStyle=1;align=center;verticalAlign=top;childLayout=stackLayout;horizontal=1;startSize=26;horizontalStack=0;resizeParent=1;resizeParentMax=0;resizeLast=0;collapsible=1;marginBottom=0;fontSize=12;" vertex="1" parent="1">
          <mxGeometry x="-610" y="310" width="270" height="100" as="geometry">
            <mxRectangle x="-60" y="370" width="140" height="30" as="alternateBounds" />
          </mxGeometry>
        </mxCell>
        <mxCell id="z8BJtcq0WtnQSYPv6Kyj-75" value="" style="line;strokeWidth=1;fillColor=none;align=left;verticalAlign=middle;spacingTop=-1;spacingLeft=3;spacingRight=3;rotatable=0;labelPosition=right;points=[];portConstraint=eastwest;strokeColor=inherit;fontSize=16;" vertex="1" parent="z8BJtcq0WtnQSYPv6Kyj-73">
          <mxGeometry y="26" width="270" height="8" as="geometry" />
        </mxCell>
        <mxCell id="z8BJtcq0WtnQSYPv6Kyj-76" value="+ CreateLaptop(): ILaptop&#xa;+ CreateNetbook(): INetbook&#xa;+ CreateEbook(): IEbook&#xa;+ CreateSmartphone(): ISmartphone" style="text;strokeColor=none;fillColor=none;align=left;verticalAlign=top;spacingLeft=4;spacingRight=4;overflow=hidden;rotatable=0;points=[[0,0.5],[1,0.5]];portConstraint=eastwest;fontSize=12;" vertex="1" parent="z8BJtcq0WtnQSYPv6Kyj-73">
          <mxGeometry y="34" width="270" height="66" as="geometry" />
        </mxCell>
        <mxCell id="z8BJtcq0WtnQSYPv6Kyj-77" style="edgeStyle=orthogonalEdgeStyle;rounded=0;orthogonalLoop=1;jettySize=auto;html=1;exitX=0.5;exitY=0;exitDx=0;exitDy=0;entryX=0.5;entryY=1;entryDx=0;entryDy=0;dashed=1;endArrow=block;endFill=0;" edge="1" source="z8BJtcq0WtnQSYPv6Kyj-78" target="z8BJtcq0WtnQSYPv6Kyj-66" parent="1">
          <mxGeometry relative="1" as="geometry" />
        </mxCell>
        <mxCell id="z8BJtcq0WtnQSYPv6Kyj-78" value="KiaomiCreator" style="swimlane;fontStyle=1;align=center;verticalAlign=top;childLayout=stackLayout;horizontal=1;startSize=26;horizontalStack=0;resizeParent=1;resizeParentMax=0;resizeLast=0;collapsible=1;marginBottom=0;fontSize=12;" vertex="1" parent="1">
          <mxGeometry x="-320" y="310" width="270" height="100" as="geometry">
            <mxRectangle x="-60" y="370" width="140" height="30" as="alternateBounds" />
          </mxGeometry>
        </mxCell>
        <mxCell id="z8BJtcq0WtnQSYPv6Kyj-80" value="" style="line;strokeWidth=1;fillColor=none;align=left;verticalAlign=middle;spacingTop=-1;spacingLeft=3;spacingRight=3;rotatable=0;labelPosition=right;points=[];portConstraint=eastwest;strokeColor=inherit;fontSize=16;" vertex="1" parent="z8BJtcq0WtnQSYPv6Kyj-78">
          <mxGeometry y="26" width="270" height="8" as="geometry" />
        </mxCell>
        <mxCell id="z8BJtcq0WtnQSYPv6Kyj-81" value="+ CreateLaptop(): ILaptop&#xa;+ CreateNetbook(): INetbook&#xa;+ CreateEbook(): IEbook&#xa;+ CreateSmartphone(): ISmartphone" style="text;strokeColor=none;fillColor=none;align=left;verticalAlign=top;spacingLeft=4;spacingRight=4;overflow=hidden;rotatable=0;points=[[0,0.5],[1,0.5]];portConstraint=eastwest;fontSize=12;" vertex="1" parent="z8BJtcq0WtnQSYPv6Kyj-78">
          <mxGeometry y="34" width="270" height="66" as="geometry" />
        </mxCell>
        <mxCell id="z8BJtcq0WtnQSYPv6Kyj-82" value="&lt;font style=&quot;font-size: 40px;&quot;&gt;IS-A&lt;/font&gt;" style="text;html=1;align=center;verticalAlign=middle;resizable=0;points=[];autosize=1;strokeColor=none;fillColor=none;" vertex="1" parent="1">
          <mxGeometry x="-830" y="40" width="100" height="60" as="geometry" />
        </mxCell>
        <mxCell id="z8BJtcq0WtnQSYPv6Kyj-83" value="&lt;font style=&quot;font-size: 40px;&quot;&gt;HAS-A&lt;/font&gt;" style="text;html=1;align=center;verticalAlign=middle;resizable=0;points=[];autosize=1;strokeColor=none;fillColor=none;" vertex="1" parent="1">
          <mxGeometry x="-830" y="940" width="150" height="60" as="geometry" />
        </mxCell>
        <mxCell id="z8BJtcq0WtnQSYPv6Kyj-135" style="edgeStyle=orthogonalEdgeStyle;rounded=0;orthogonalLoop=1;jettySize=auto;html=1;exitX=0.5;exitY=1;exitDx=0;exitDy=0;entryX=0.5;entryY=0;entryDx=0;entryDy=0;endArrow=open;endFill=0;" edge="1" parent="1" source="z8BJtcq0WtnQSYPv6Kyj-100" target="z8BJtcq0WtnQSYPv6Kyj-114">
          <mxGeometry relative="1" as="geometry" />
        </mxCell>
        <mxCell id="z8BJtcq0WtnQSYPv6Kyj-136" style="edgeStyle=orthogonalEdgeStyle;rounded=0;orthogonalLoop=1;jettySize=auto;html=1;exitX=0.5;exitY=1;exitDx=0;exitDy=0;entryX=0.5;entryY=0;entryDx=0;entryDy=0;endArrow=open;endFill=0;" edge="1" parent="1" source="z8BJtcq0WtnQSYPv6Kyj-100" target="z8BJtcq0WtnQSYPv6Kyj-123">
          <mxGeometry relative="1" as="geometry" />
        </mxCell>
        <mxCell id="z8BJtcq0WtnQSYPv6Kyj-137" style="edgeStyle=orthogonalEdgeStyle;rounded=0;orthogonalLoop=1;jettySize=auto;html=1;exitX=0.5;exitY=1;exitDx=0;exitDy=0;entryX=0.5;entryY=0;entryDx=0;entryDy=0;endArrow=open;endFill=0;" edge="1" parent="1" source="z8BJtcq0WtnQSYPv6Kyj-100" target="z8BJtcq0WtnQSYPv6Kyj-127">
          <mxGeometry relative="1" as="geometry" />
        </mxCell>
        <mxCell id="z8BJtcq0WtnQSYPv6Kyj-138" style="edgeStyle=orthogonalEdgeStyle;rounded=0;orthogonalLoop=1;jettySize=auto;html=1;exitX=0.5;exitY=1;exitDx=0;exitDy=0;entryX=0.5;entryY=0;entryDx=0;entryDy=0;endArrow=open;endFill=0;" edge="1" parent="1" source="z8BJtcq0WtnQSYPv6Kyj-100" target="z8BJtcq0WtnQSYPv6Kyj-131">
          <mxGeometry relative="1" as="geometry" />
        </mxCell>
        <mxCell id="z8BJtcq0WtnQSYPv6Kyj-100" value="IproneCreator" style="swimlane;fontStyle=1;align=center;verticalAlign=top;childLayout=stackLayout;horizontal=1;startSize=26;horizontalStack=0;resizeParent=1;resizeParentMax=0;resizeLast=0;collapsible=1;marginBottom=0;fontSize=12;" vertex="1" parent="1">
          <mxGeometry x="-250" y="1050" width="270" height="100" as="geometry">
            <mxRectangle x="-60" y="370" width="140" height="30" as="alternateBounds" />
          </mxGeometry>
        </mxCell>
        <mxCell id="z8BJtcq0WtnQSYPv6Kyj-101" value="" style="line;strokeWidth=1;fillColor=none;align=left;verticalAlign=middle;spacingTop=-1;spacingLeft=3;spacingRight=3;rotatable=0;labelPosition=right;points=[];portConstraint=eastwest;strokeColor=inherit;fontSize=16;" vertex="1" parent="z8BJtcq0WtnQSYPv6Kyj-100">
          <mxGeometry y="26" width="270" height="8" as="geometry" />
        </mxCell>
        <mxCell id="z8BJtcq0WtnQSYPv6Kyj-102" value="+ CreateLaptop(): ILaptop&#xa;+ CreateNetbook(): INetbook&#xa;+ CreateEbook(): IEbook&#xa;+ CreateSmartphone(): ISmartphone" style="text;strokeColor=none;fillColor=none;align=left;verticalAlign=top;spacingLeft=4;spacingRight=4;overflow=hidden;rotatable=0;points=[[0,0.5],[1,0.5]];portConstraint=eastwest;fontSize=12;" vertex="1" parent="z8BJtcq0WtnQSYPv6Kyj-100">
          <mxGeometry y="34" width="270" height="66" as="geometry" />
        </mxCell>
        <mxCell id="z8BJtcq0WtnQSYPv6Kyj-114" value="IproneEbook" style="swimlane;fontStyle=1;align=center;verticalAlign=top;childLayout=stackLayout;horizontal=1;startSize=26;horizontalStack=0;resizeParent=1;resizeParentMax=0;resizeLast=0;collapsible=1;marginBottom=0;fontSize=12;" vertex="1" parent="1">
          <mxGeometry x="-690" y="1200" width="270" height="130" as="geometry">
            <mxRectangle x="-60" y="370" width="140" height="30" as="alternateBounds" />
          </mxGeometry>
        </mxCell>
        <mxCell id="z8BJtcq0WtnQSYPv6Kyj-115" value="+ Manufacturer: string { get; }&#xa;+ Model: string { get; }&#xa;+ PixelDensity: int { get; }" style="text;strokeColor=none;fillColor=none;align=left;verticalAlign=top;spacingLeft=4;spacingRight=4;overflow=hidden;rotatable=0;points=[[0,0.5],[1,0.5]];portConstraint=eastwest;fontSize=12;" vertex="1" parent="z8BJtcq0WtnQSYPv6Kyj-114">
          <mxGeometry y="26" width="270" height="54" as="geometry" />
        </mxCell>
        <mxCell id="z8BJtcq0WtnQSYPv6Kyj-116" value="" style="line;strokeWidth=1;fillColor=none;align=left;verticalAlign=middle;spacingTop=-1;spacingLeft=3;spacingRight=3;rotatable=0;labelPosition=right;points=[];portConstraint=eastwest;strokeColor=inherit;fontSize=16;" vertex="1" parent="z8BJtcq0WtnQSYPv6Kyj-114">
          <mxGeometry y="80" width="270" height="8" as="geometry" />
        </mxCell>
        <mxCell id="z8BJtcq0WtnQSYPv6Kyj-117" value="+ OpenBook(bookName: string): void&#xa;+ GetInfo(): string" style="text;strokeColor=none;fillColor=none;align=left;verticalAlign=top;spacingLeft=4;spacingRight=4;overflow=hidden;rotatable=0;points=[[0,0.5],[1,0.5]];portConstraint=eastwest;fontSize=12;" vertex="1" parent="z8BJtcq0WtnQSYPv6Kyj-114">
          <mxGeometry y="88" width="270" height="42" as="geometry" />
        </mxCell>
        <mxCell id="z8BJtcq0WtnQSYPv6Kyj-123" value="IproneLaptop" style="swimlane;fontStyle=1;align=center;verticalAlign=top;childLayout=stackLayout;horizontal=1;startSize=26;horizontalStack=0;resizeParent=1;resizeParentMax=0;resizeLast=0;collapsible=1;marginBottom=0;fontSize=12;" vertex="1" parent="1">
          <mxGeometry x="-400" y="1200" width="270" height="140" as="geometry">
            <mxRectangle x="-60" y="370" width="140" height="30" as="alternateBounds" />
          </mxGeometry>
        </mxCell>
        <mxCell id="z8BJtcq0WtnQSYPv6Kyj-124" value="+ Manufacturer: string { get; }&#xa;+ Model: string { get; }&#xa;+ ScreenSize: float { get; }" style="text;strokeColor=none;fillColor=none;align=left;verticalAlign=top;spacingLeft=4;spacingRight=4;overflow=hidden;rotatable=0;points=[[0,0.5],[1,0.5]];portConstraint=eastwest;fontSize=12;" vertex="1" parent="z8BJtcq0WtnQSYPv6Kyj-123">
          <mxGeometry y="26" width="270" height="54" as="geometry" />
        </mxCell>
        <mxCell id="z8BJtcq0WtnQSYPv6Kyj-125" value="" style="line;strokeWidth=1;fillColor=none;align=left;verticalAlign=middle;spacingTop=-1;spacingLeft=3;spacingRight=3;rotatable=0;labelPosition=right;points=[];portConstraint=eastwest;strokeColor=inherit;fontSize=16;" vertex="1" parent="z8BJtcq0WtnQSYPv6Kyj-123">
          <mxGeometry y="80" width="270" height="8" as="geometry" />
        </mxCell>
        <mxCell id="z8BJtcq0WtnQSYPv6Kyj-126" value="+ InstallOd(OsName: string): void&#xa;+ StartWork(): void&#xa;+ GetInfo(): string" style="text;strokeColor=none;fillColor=none;align=left;verticalAlign=top;spacingLeft=4;spacingRight=4;overflow=hidden;rotatable=0;points=[[0,0.5],[1,0.5]];portConstraint=eastwest;fontSize=12;" vertex="1" parent="z8BJtcq0WtnQSYPv6Kyj-123">
          <mxGeometry y="88" width="270" height="52" as="geometry" />
        </mxCell>
        <mxCell id="z8BJtcq0WtnQSYPv6Kyj-127" value="IproneSmartphone" style="swimlane;fontStyle=1;align=center;verticalAlign=top;childLayout=stackLayout;horizontal=1;startSize=26;horizontalStack=0;resizeParent=1;resizeParentMax=0;resizeLast=0;collapsible=1;marginBottom=0;fontSize=12;" vertex="1" parent="1">
          <mxGeometry x="-110" y="1200" width="270" height="140" as="geometry">
            <mxRectangle x="-60" y="370" width="140" height="30" as="alternateBounds" />
          </mxGeometry>
        </mxCell>
        <mxCell id="z8BJtcq0WtnQSYPv6Kyj-128" value="+ Manufacturer: string { get; }&#xa;+ Model: string { get; }&#xa;+ DisplayType: string { get; }" style="text;strokeColor=none;fillColor=none;align=left;verticalAlign=top;spacingLeft=4;spacingRight=4;overflow=hidden;rotatable=0;points=[[0,0.5],[1,0.5]];portConstraint=eastwest;fontSize=12;" vertex="1" parent="z8BJtcq0WtnQSYPv6Kyj-127">
          <mxGeometry y="26" width="270" height="54" as="geometry" />
        </mxCell>
        <mxCell id="z8BJtcq0WtnQSYPv6Kyj-129" value="" style="line;strokeWidth=1;fillColor=none;align=left;verticalAlign=middle;spacingTop=-1;spacingLeft=3;spacingRight=3;rotatable=0;labelPosition=right;points=[];portConstraint=eastwest;strokeColor=inherit;fontSize=16;" vertex="1" parent="z8BJtcq0WtnQSYPv6Kyj-127">
          <mxGeometry y="80" width="270" height="8" as="geometry" />
        </mxCell>
        <mxCell id="z8BJtcq0WtnQSYPv6Kyj-130" value="+ OpenCamera(): void&#xa;+ MakeCall(phoneNumber: string): void&#xa;+ GetInfo(): string" style="text;strokeColor=none;fillColor=none;align=left;verticalAlign=top;spacingLeft=4;spacingRight=4;overflow=hidden;rotatable=0;points=[[0,0.5],[1,0.5]];portConstraint=eastwest;fontSize=12;" vertex="1" parent="z8BJtcq0WtnQSYPv6Kyj-127">
          <mxGeometry y="88" width="270" height="52" as="geometry" />
        </mxCell>
        <mxCell id="z8BJtcq0WtnQSYPv6Kyj-131" value="IproneNetbook" style="swimlane;fontStyle=1;align=center;verticalAlign=top;childLayout=stackLayout;horizontal=1;startSize=26;horizontalStack=0;resizeParent=1;resizeParentMax=0;resizeLast=0;collapsible=1;marginBottom=0;fontSize=12;" vertex="1" parent="1">
          <mxGeometry x="180" y="1200" width="270" height="150" as="geometry">
            <mxRectangle x="-60" y="370" width="140" height="30" as="alternateBounds" />
          </mxGeometry>
        </mxCell>
        <mxCell id="z8BJtcq0WtnQSYPv6Kyj-132" value="+ Manufacturer: string { get; }&#xa;+ Model: string { get; }&#xa;+ BatterySize: int { get; }&#xa;+ InstalledSoftware: List&lt;string&gt; { get; }" style="text;strokeColor=none;fillColor=none;align=left;verticalAlign=top;spacingLeft=4;spacingRight=4;overflow=hidden;rotatable=0;points=[[0,0.5],[1,0.5]];portConstraint=eastwest;fontSize=12;" vertex="1" parent="z8BJtcq0WtnQSYPv6Kyj-131">
          <mxGeometry y="26" width="270" height="64" as="geometry" />
        </mxCell>
        <mxCell id="z8BJtcq0WtnQSYPv6Kyj-133" value="" style="line;strokeWidth=1;fillColor=none;align=left;verticalAlign=middle;spacingTop=-1;spacingLeft=3;spacingRight=3;rotatable=0;labelPosition=right;points=[];portConstraint=eastwest;strokeColor=inherit;fontSize=16;" vertex="1" parent="z8BJtcq0WtnQSYPv6Kyj-131">
          <mxGeometry y="90" width="270" height="8" as="geometry" />
        </mxCell>
        <mxCell id="z8BJtcq0WtnQSYPv6Kyj-134" value="+ InstallSoftware(softwareName: string): void&#xa;+ ConnectToInternet(): void&#xa;+ GetInfo(): string" style="text;strokeColor=none;fillColor=none;align=left;verticalAlign=top;spacingLeft=4;spacingRight=4;overflow=hidden;rotatable=0;points=[[0,0.5],[1,0.5]];portConstraint=eastwest;fontSize=12;" vertex="1" parent="z8BJtcq0WtnQSYPv6Kyj-131">
          <mxGeometry y="98" width="270" height="52" as="geometry" />
        </mxCell>
        <mxCell id="z8BJtcq0WtnQSYPv6Kyj-139" style="edgeStyle=orthogonalEdgeStyle;rounded=0;orthogonalLoop=1;jettySize=auto;html=1;exitX=0.5;exitY=1;exitDx=0;exitDy=0;entryX=0.5;entryY=0;entryDx=0;entryDy=0;endArrow=open;endFill=0;" edge="1" source="z8BJtcq0WtnQSYPv6Kyj-143" target="z8BJtcq0WtnQSYPv6Kyj-146" parent="1">
          <mxGeometry relative="1" as="geometry" />
        </mxCell>
        <mxCell id="z8BJtcq0WtnQSYPv6Kyj-140" style="edgeStyle=orthogonalEdgeStyle;rounded=0;orthogonalLoop=1;jettySize=auto;html=1;exitX=0.5;exitY=1;exitDx=0;exitDy=0;entryX=0.5;entryY=0;entryDx=0;entryDy=0;endArrow=open;endFill=0;" edge="1" source="z8BJtcq0WtnQSYPv6Kyj-143" target="z8BJtcq0WtnQSYPv6Kyj-150" parent="1">
          <mxGeometry relative="1" as="geometry" />
        </mxCell>
        <mxCell id="z8BJtcq0WtnQSYPv6Kyj-141" style="edgeStyle=orthogonalEdgeStyle;rounded=0;orthogonalLoop=1;jettySize=auto;html=1;exitX=0.5;exitY=1;exitDx=0;exitDy=0;entryX=0.5;entryY=0;entryDx=0;entryDy=0;endArrow=open;endFill=0;" edge="1" source="z8BJtcq0WtnQSYPv6Kyj-143" target="z8BJtcq0WtnQSYPv6Kyj-154" parent="1">
          <mxGeometry relative="1" as="geometry" />
        </mxCell>
        <mxCell id="z8BJtcq0WtnQSYPv6Kyj-142" style="edgeStyle=orthogonalEdgeStyle;rounded=0;orthogonalLoop=1;jettySize=auto;html=1;exitX=0.5;exitY=1;exitDx=0;exitDy=0;entryX=0.5;entryY=0;entryDx=0;entryDy=0;endArrow=open;endFill=0;" edge="1" source="z8BJtcq0WtnQSYPv6Kyj-143" target="z8BJtcq0WtnQSYPv6Kyj-158" parent="1">
          <mxGeometry relative="1" as="geometry" />
        </mxCell>
        <mxCell id="z8BJtcq0WtnQSYPv6Kyj-143" value="BalaxyCreator" style="swimlane;fontStyle=1;align=center;verticalAlign=top;childLayout=stackLayout;horizontal=1;startSize=26;horizontalStack=0;resizeParent=1;resizeParentMax=0;resizeLast=0;collapsible=1;marginBottom=0;fontSize=12;" vertex="1" parent="1">
          <mxGeometry x="970" y="1050" width="270" height="100" as="geometry">
            <mxRectangle x="-60" y="370" width="140" height="30" as="alternateBounds" />
          </mxGeometry>
        </mxCell>
        <mxCell id="z8BJtcq0WtnQSYPv6Kyj-144" value="" style="line;strokeWidth=1;fillColor=none;align=left;verticalAlign=middle;spacingTop=-1;spacingLeft=3;spacingRight=3;rotatable=0;labelPosition=right;points=[];portConstraint=eastwest;strokeColor=inherit;fontSize=16;" vertex="1" parent="z8BJtcq0WtnQSYPv6Kyj-143">
          <mxGeometry y="26" width="270" height="8" as="geometry" />
        </mxCell>
        <mxCell id="z8BJtcq0WtnQSYPv6Kyj-145" value="+ CreateLaptop(): ILaptop&#xa;+ CreateNetbook(): INetbook&#xa;+ CreateEbook(): IEbook&#xa;+ CreateSmartphone(): ISmartphone" style="text;strokeColor=none;fillColor=none;align=left;verticalAlign=top;spacingLeft=4;spacingRight=4;overflow=hidden;rotatable=0;points=[[0,0.5],[1,0.5]];portConstraint=eastwest;fontSize=12;" vertex="1" parent="z8BJtcq0WtnQSYPv6Kyj-143">
          <mxGeometry y="34" width="270" height="66" as="geometry" />
        </mxCell>
        <mxCell id="z8BJtcq0WtnQSYPv6Kyj-146" value="BalaxyEbook" style="swimlane;fontStyle=1;align=center;verticalAlign=top;childLayout=stackLayout;horizontal=1;startSize=26;horizontalStack=0;resizeParent=1;resizeParentMax=0;resizeLast=0;collapsible=1;marginBottom=0;fontSize=12;" vertex="1" parent="1">
          <mxGeometry x="530" y="1200" width="270" height="130" as="geometry">
            <mxRectangle x="-60" y="370" width="140" height="30" as="alternateBounds" />
          </mxGeometry>
        </mxCell>
        <mxCell id="z8BJtcq0WtnQSYPv6Kyj-147" value="+ Manufacturer: string { get; }&#xa;+ Model: string { get; }&#xa;+ PixelDensity: int { get; }" style="text;strokeColor=none;fillColor=none;align=left;verticalAlign=top;spacingLeft=4;spacingRight=4;overflow=hidden;rotatable=0;points=[[0,0.5],[1,0.5]];portConstraint=eastwest;fontSize=12;" vertex="1" parent="z8BJtcq0WtnQSYPv6Kyj-146">
          <mxGeometry y="26" width="270" height="54" as="geometry" />
        </mxCell>
        <mxCell id="z8BJtcq0WtnQSYPv6Kyj-148" value="" style="line;strokeWidth=1;fillColor=none;align=left;verticalAlign=middle;spacingTop=-1;spacingLeft=3;spacingRight=3;rotatable=0;labelPosition=right;points=[];portConstraint=eastwest;strokeColor=inherit;fontSize=16;" vertex="1" parent="z8BJtcq0WtnQSYPv6Kyj-146">
          <mxGeometry y="80" width="270" height="8" as="geometry" />
        </mxCell>
        <mxCell id="z8BJtcq0WtnQSYPv6Kyj-149" value="+ OpenBook(bookName: string): void&#xa;+ GetInfo(): string" style="text;strokeColor=none;fillColor=none;align=left;verticalAlign=top;spacingLeft=4;spacingRight=4;overflow=hidden;rotatable=0;points=[[0,0.5],[1,0.5]];portConstraint=eastwest;fontSize=12;" vertex="1" parent="z8BJtcq0WtnQSYPv6Kyj-146">
          <mxGeometry y="88" width="270" height="42" as="geometry" />
        </mxCell>
        <mxCell id="z8BJtcq0WtnQSYPv6Kyj-150" value="BalaxyLaptop" style="swimlane;fontStyle=1;align=center;verticalAlign=top;childLayout=stackLayout;horizontal=1;startSize=26;horizontalStack=0;resizeParent=1;resizeParentMax=0;resizeLast=0;collapsible=1;marginBottom=0;fontSize=12;" vertex="1" parent="1">
          <mxGeometry x="820" y="1200" width="270" height="140" as="geometry">
            <mxRectangle x="-60" y="370" width="140" height="30" as="alternateBounds" />
          </mxGeometry>
        </mxCell>
        <mxCell id="z8BJtcq0WtnQSYPv6Kyj-151" value="+ Manufacturer: string { get; }&#xa;+ Model: string { get; }&#xa;+ ScreenSize: float { get; }" style="text;strokeColor=none;fillColor=none;align=left;verticalAlign=top;spacingLeft=4;spacingRight=4;overflow=hidden;rotatable=0;points=[[0,0.5],[1,0.5]];portConstraint=eastwest;fontSize=12;" vertex="1" parent="z8BJtcq0WtnQSYPv6Kyj-150">
          <mxGeometry y="26" width="270" height="54" as="geometry" />
        </mxCell>
        <mxCell id="z8BJtcq0WtnQSYPv6Kyj-152" value="" style="line;strokeWidth=1;fillColor=none;align=left;verticalAlign=middle;spacingTop=-1;spacingLeft=3;spacingRight=3;rotatable=0;labelPosition=right;points=[];portConstraint=eastwest;strokeColor=inherit;fontSize=16;" vertex="1" parent="z8BJtcq0WtnQSYPv6Kyj-150">
          <mxGeometry y="80" width="270" height="8" as="geometry" />
        </mxCell>
        <mxCell id="z8BJtcq0WtnQSYPv6Kyj-153" value="+ InstallOd(OsName: string): void&#xa;+ StartWork(): void&#xa;+ GetInfo(): string" style="text;strokeColor=none;fillColor=none;align=left;verticalAlign=top;spacingLeft=4;spacingRight=4;overflow=hidden;rotatable=0;points=[[0,0.5],[1,0.5]];portConstraint=eastwest;fontSize=12;" vertex="1" parent="z8BJtcq0WtnQSYPv6Kyj-150">
          <mxGeometry y="88" width="270" height="52" as="geometry" />
        </mxCell>
        <mxCell id="z8BJtcq0WtnQSYPv6Kyj-154" value="BalaxySmartphone" style="swimlane;fontStyle=1;align=center;verticalAlign=top;childLayout=stackLayout;horizontal=1;startSize=26;horizontalStack=0;resizeParent=1;resizeParentMax=0;resizeLast=0;collapsible=1;marginBottom=0;fontSize=12;" vertex="1" parent="1">
          <mxGeometry x="1110" y="1200" width="270" height="140" as="geometry">
            <mxRectangle x="-60" y="370" width="140" height="30" as="alternateBounds" />
          </mxGeometry>
        </mxCell>
        <mxCell id="z8BJtcq0WtnQSYPv6Kyj-155" value="+ Manufacturer: string { get; }&#xa;+ Model: string { get; }&#xa;+ DisplayType: string { get; }" style="text;strokeColor=none;fillColor=none;align=left;verticalAlign=top;spacingLeft=4;spacingRight=4;overflow=hidden;rotatable=0;points=[[0,0.5],[1,0.5]];portConstraint=eastwest;fontSize=12;" vertex="1" parent="z8BJtcq0WtnQSYPv6Kyj-154">
          <mxGeometry y="26" width="270" height="54" as="geometry" />
        </mxCell>
        <mxCell id="z8BJtcq0WtnQSYPv6Kyj-156" value="" style="line;strokeWidth=1;fillColor=none;align=left;verticalAlign=middle;spacingTop=-1;spacingLeft=3;spacingRight=3;rotatable=0;labelPosition=right;points=[];portConstraint=eastwest;strokeColor=inherit;fontSize=16;" vertex="1" parent="z8BJtcq0WtnQSYPv6Kyj-154">
          <mxGeometry y="80" width="270" height="8" as="geometry" />
        </mxCell>
        <mxCell id="z8BJtcq0WtnQSYPv6Kyj-157" value="+ OpenCamera(): void&#xa;+ MakeCall(phoneNumber: string): void&#xa;+ GetInfo(): string" style="text;strokeColor=none;fillColor=none;align=left;verticalAlign=top;spacingLeft=4;spacingRight=4;overflow=hidden;rotatable=0;points=[[0,0.5],[1,0.5]];portConstraint=eastwest;fontSize=12;" vertex="1" parent="z8BJtcq0WtnQSYPv6Kyj-154">
          <mxGeometry y="88" width="270" height="52" as="geometry" />
        </mxCell>
        <mxCell id="z8BJtcq0WtnQSYPv6Kyj-158" value="BalaxyNetbook" style="swimlane;fontStyle=1;align=center;verticalAlign=top;childLayout=stackLayout;horizontal=1;startSize=26;horizontalStack=0;resizeParent=1;resizeParentMax=0;resizeLast=0;collapsible=1;marginBottom=0;fontSize=12;" vertex="1" parent="1">
          <mxGeometry x="1400" y="1200" width="270" height="150" as="geometry">
            <mxRectangle x="-60" y="370" width="140" height="30" as="alternateBounds" />
          </mxGeometry>
        </mxCell>
        <mxCell id="z8BJtcq0WtnQSYPv6Kyj-159" value="+ Manufacturer: string { get; }&#xa;+ Model: string { get; }&#xa;+ BatterySize: int { get; }&#xa;+ InstalledSoftware: List&lt;string&gt; { get; }" style="text;strokeColor=none;fillColor=none;align=left;verticalAlign=top;spacingLeft=4;spacingRight=4;overflow=hidden;rotatable=0;points=[[0,0.5],[1,0.5]];portConstraint=eastwest;fontSize=12;" vertex="1" parent="z8BJtcq0WtnQSYPv6Kyj-158">
          <mxGeometry y="26" width="270" height="64" as="geometry" />
        </mxCell>
        <mxCell id="z8BJtcq0WtnQSYPv6Kyj-160" value="" style="line;strokeWidth=1;fillColor=none;align=left;verticalAlign=middle;spacingTop=-1;spacingLeft=3;spacingRight=3;rotatable=0;labelPosition=right;points=[];portConstraint=eastwest;strokeColor=inherit;fontSize=16;" vertex="1" parent="z8BJtcq0WtnQSYPv6Kyj-158">
          <mxGeometry y="90" width="270" height="8" as="geometry" />
        </mxCell>
        <mxCell id="z8BJtcq0WtnQSYPv6Kyj-161" value="+ InstallSoftware(softwareName: string): void&#xa;+ ConnectToInternet(): void&#xa;+ GetInfo(): string" style="text;strokeColor=none;fillColor=none;align=left;verticalAlign=top;spacingLeft=4;spacingRight=4;overflow=hidden;rotatable=0;points=[[0,0.5],[1,0.5]];portConstraint=eastwest;fontSize=12;" vertex="1" parent="z8BJtcq0WtnQSYPv6Kyj-158">
          <mxGeometry y="98" width="270" height="52" as="geometry" />
        </mxCell>
        <mxCell id="z8BJtcq0WtnQSYPv6Kyj-162" style="edgeStyle=orthogonalEdgeStyle;rounded=0;orthogonalLoop=1;jettySize=auto;html=1;exitX=0.5;exitY=1;exitDx=0;exitDy=0;entryX=0.5;entryY=0;entryDx=0;entryDy=0;endArrow=open;endFill=0;" edge="1" source="z8BJtcq0WtnQSYPv6Kyj-166" target="z8BJtcq0WtnQSYPv6Kyj-169" parent="1">
          <mxGeometry relative="1" as="geometry" />
        </mxCell>
        <mxCell id="z8BJtcq0WtnQSYPv6Kyj-163" style="edgeStyle=orthogonalEdgeStyle;rounded=0;orthogonalLoop=1;jettySize=auto;html=1;exitX=0.5;exitY=1;exitDx=0;exitDy=0;entryX=0.5;entryY=0;entryDx=0;entryDy=0;endArrow=open;endFill=0;" edge="1" source="z8BJtcq0WtnQSYPv6Kyj-166" target="z8BJtcq0WtnQSYPv6Kyj-173" parent="1">
          <mxGeometry relative="1" as="geometry" />
        </mxCell>
        <mxCell id="z8BJtcq0WtnQSYPv6Kyj-164" style="edgeStyle=orthogonalEdgeStyle;rounded=0;orthogonalLoop=1;jettySize=auto;html=1;exitX=0.5;exitY=1;exitDx=0;exitDy=0;entryX=0.5;entryY=0;entryDx=0;entryDy=0;endArrow=open;endFill=0;" edge="1" source="z8BJtcq0WtnQSYPv6Kyj-166" target="z8BJtcq0WtnQSYPv6Kyj-177" parent="1">
          <mxGeometry relative="1" as="geometry" />
        </mxCell>
        <mxCell id="z8BJtcq0WtnQSYPv6Kyj-165" style="edgeStyle=orthogonalEdgeStyle;rounded=0;orthogonalLoop=1;jettySize=auto;html=1;exitX=0.5;exitY=1;exitDx=0;exitDy=0;entryX=0.5;entryY=0;entryDx=0;entryDy=0;endArrow=open;endFill=0;" edge="1" source="z8BJtcq0WtnQSYPv6Kyj-166" target="z8BJtcq0WtnQSYPv6Kyj-181" parent="1">
          <mxGeometry relative="1" as="geometry" />
        </mxCell>
        <mxCell id="z8BJtcq0WtnQSYPv6Kyj-166" value="KiaomiCreator" style="swimlane;fontStyle=1;align=center;verticalAlign=top;childLayout=stackLayout;horizontal=1;startSize=26;horizontalStack=0;resizeParent=1;resizeParentMax=0;resizeLast=0;collapsible=1;marginBottom=0;fontSize=12;" vertex="1" parent="1">
          <mxGeometry x="350" y="1450" width="270" height="100" as="geometry">
            <mxRectangle x="-60" y="370" width="140" height="30" as="alternateBounds" />
          </mxGeometry>
        </mxCell>
        <mxCell id="z8BJtcq0WtnQSYPv6Kyj-167" value="" style="line;strokeWidth=1;fillColor=none;align=left;verticalAlign=middle;spacingTop=-1;spacingLeft=3;spacingRight=3;rotatable=0;labelPosition=right;points=[];portConstraint=eastwest;strokeColor=inherit;fontSize=16;" vertex="1" parent="z8BJtcq0WtnQSYPv6Kyj-166">
          <mxGeometry y="26" width="270" height="8" as="geometry" />
        </mxCell>
        <mxCell id="z8BJtcq0WtnQSYPv6Kyj-168" value="+ CreateLaptop(): ILaptop&#xa;+ CreateNetbook(): INetbook&#xa;+ CreateEbook(): IEbook&#xa;+ CreateSmartphone(): ISmartphone" style="text;strokeColor=none;fillColor=none;align=left;verticalAlign=top;spacingLeft=4;spacingRight=4;overflow=hidden;rotatable=0;points=[[0,0.5],[1,0.5]];portConstraint=eastwest;fontSize=12;" vertex="1" parent="z8BJtcq0WtnQSYPv6Kyj-166">
          <mxGeometry y="34" width="270" height="66" as="geometry" />
        </mxCell>
        <mxCell id="z8BJtcq0WtnQSYPv6Kyj-169" value="KiaomiEbook" style="swimlane;fontStyle=1;align=center;verticalAlign=top;childLayout=stackLayout;horizontal=1;startSize=26;horizontalStack=0;resizeParent=1;resizeParentMax=0;resizeLast=0;collapsible=1;marginBottom=0;fontSize=12;" vertex="1" parent="1">
          <mxGeometry x="-90" y="1600" width="270" height="130" as="geometry">
            <mxRectangle x="-60" y="370" width="140" height="30" as="alternateBounds" />
          </mxGeometry>
        </mxCell>
        <mxCell id="z8BJtcq0WtnQSYPv6Kyj-170" value="+ Manufacturer: string { get; }&#xa;+ Model: string { get; }&#xa;+ PixelDensity: int { get; }" style="text;strokeColor=none;fillColor=none;align=left;verticalAlign=top;spacingLeft=4;spacingRight=4;overflow=hidden;rotatable=0;points=[[0,0.5],[1,0.5]];portConstraint=eastwest;fontSize=12;" vertex="1" parent="z8BJtcq0WtnQSYPv6Kyj-169">
          <mxGeometry y="26" width="270" height="54" as="geometry" />
        </mxCell>
        <mxCell id="z8BJtcq0WtnQSYPv6Kyj-171" value="" style="line;strokeWidth=1;fillColor=none;align=left;verticalAlign=middle;spacingTop=-1;spacingLeft=3;spacingRight=3;rotatable=0;labelPosition=right;points=[];portConstraint=eastwest;strokeColor=inherit;fontSize=16;" vertex="1" parent="z8BJtcq0WtnQSYPv6Kyj-169">
          <mxGeometry y="80" width="270" height="8" as="geometry" />
        </mxCell>
        <mxCell id="z8BJtcq0WtnQSYPv6Kyj-172" value="+ OpenBook(bookName: string): void&#xa;+ GetInfo(): string" style="text;strokeColor=none;fillColor=none;align=left;verticalAlign=top;spacingLeft=4;spacingRight=4;overflow=hidden;rotatable=0;points=[[0,0.5],[1,0.5]];portConstraint=eastwest;fontSize=12;" vertex="1" parent="z8BJtcq0WtnQSYPv6Kyj-169">
          <mxGeometry y="88" width="270" height="42" as="geometry" />
        </mxCell>
        <mxCell id="z8BJtcq0WtnQSYPv6Kyj-173" value="KiaomiLaptop" style="swimlane;fontStyle=1;align=center;verticalAlign=top;childLayout=stackLayout;horizontal=1;startSize=26;horizontalStack=0;resizeParent=1;resizeParentMax=0;resizeLast=0;collapsible=1;marginBottom=0;fontSize=12;" vertex="1" parent="1">
          <mxGeometry x="200" y="1600" width="270" height="140" as="geometry">
            <mxRectangle x="-60" y="370" width="140" height="30" as="alternateBounds" />
          </mxGeometry>
        </mxCell>
        <mxCell id="z8BJtcq0WtnQSYPv6Kyj-174" value="+ Manufacturer: string { get; }&#xa;+ Model: string { get; }&#xa;+ ScreenSize: float { get; }" style="text;strokeColor=none;fillColor=none;align=left;verticalAlign=top;spacingLeft=4;spacingRight=4;overflow=hidden;rotatable=0;points=[[0,0.5],[1,0.5]];portConstraint=eastwest;fontSize=12;" vertex="1" parent="z8BJtcq0WtnQSYPv6Kyj-173">
          <mxGeometry y="26" width="270" height="54" as="geometry" />
        </mxCell>
        <mxCell id="z8BJtcq0WtnQSYPv6Kyj-175" value="" style="line;strokeWidth=1;fillColor=none;align=left;verticalAlign=middle;spacingTop=-1;spacingLeft=3;spacingRight=3;rotatable=0;labelPosition=right;points=[];portConstraint=eastwest;strokeColor=inherit;fontSize=16;" vertex="1" parent="z8BJtcq0WtnQSYPv6Kyj-173">
          <mxGeometry y="80" width="270" height="8" as="geometry" />
        </mxCell>
        <mxCell id="z8BJtcq0WtnQSYPv6Kyj-176" value="+ InstallOd(OsName: string): void&#xa;+ StartWork(): void&#xa;+ GetInfo(): string" style="text;strokeColor=none;fillColor=none;align=left;verticalAlign=top;spacingLeft=4;spacingRight=4;overflow=hidden;rotatable=0;points=[[0,0.5],[1,0.5]];portConstraint=eastwest;fontSize=12;" vertex="1" parent="z8BJtcq0WtnQSYPv6Kyj-173">
          <mxGeometry y="88" width="270" height="52" as="geometry" />
        </mxCell>
        <mxCell id="z8BJtcq0WtnQSYPv6Kyj-177" value="KiaomiSmartphone" style="swimlane;fontStyle=1;align=center;verticalAlign=top;childLayout=stackLayout;horizontal=1;startSize=26;horizontalStack=0;resizeParent=1;resizeParentMax=0;resizeLast=0;collapsible=1;marginBottom=0;fontSize=12;" vertex="1" parent="1">
          <mxGeometry x="490" y="1600" width="270" height="140" as="geometry">
            <mxRectangle x="-60" y="370" width="140" height="30" as="alternateBounds" />
          </mxGeometry>
        </mxCell>
        <mxCell id="z8BJtcq0WtnQSYPv6Kyj-178" value="+ Manufacturer: string { get; }&#xa;+ Model: string { get; }&#xa;+ DisplayType: string { get; }" style="text;strokeColor=none;fillColor=none;align=left;verticalAlign=top;spacingLeft=4;spacingRight=4;overflow=hidden;rotatable=0;points=[[0,0.5],[1,0.5]];portConstraint=eastwest;fontSize=12;" vertex="1" parent="z8BJtcq0WtnQSYPv6Kyj-177">
          <mxGeometry y="26" width="270" height="54" as="geometry" />
        </mxCell>
        <mxCell id="z8BJtcq0WtnQSYPv6Kyj-179" value="" style="line;strokeWidth=1;fillColor=none;align=left;verticalAlign=middle;spacingTop=-1;spacingLeft=3;spacingRight=3;rotatable=0;labelPosition=right;points=[];portConstraint=eastwest;strokeColor=inherit;fontSize=16;" vertex="1" parent="z8BJtcq0WtnQSYPv6Kyj-177">
          <mxGeometry y="80" width="270" height="8" as="geometry" />
        </mxCell>
        <mxCell id="z8BJtcq0WtnQSYPv6Kyj-180" value="+ OpenCamera(): void&#xa;+ MakeCall(phoneNumber: string): void&#xa;+ GetInfo(): string" style="text;strokeColor=none;fillColor=none;align=left;verticalAlign=top;spacingLeft=4;spacingRight=4;overflow=hidden;rotatable=0;points=[[0,0.5],[1,0.5]];portConstraint=eastwest;fontSize=12;" vertex="1" parent="z8BJtcq0WtnQSYPv6Kyj-177">
          <mxGeometry y="88" width="270" height="52" as="geometry" />
        </mxCell>
        <mxCell id="z8BJtcq0WtnQSYPv6Kyj-181" value="KiaomiNetbook" style="swimlane;fontStyle=1;align=center;verticalAlign=top;childLayout=stackLayout;horizontal=1;startSize=26;horizontalStack=0;resizeParent=1;resizeParentMax=0;resizeLast=0;collapsible=1;marginBottom=0;fontSize=12;" vertex="1" parent="1">
          <mxGeometry x="780" y="1600" width="270" height="150" as="geometry">
            <mxRectangle x="-60" y="370" width="140" height="30" as="alternateBounds" />
          </mxGeometry>
        </mxCell>
        <mxCell id="z8BJtcq0WtnQSYPv6Kyj-182" value="+ Manufacturer: string { get; }&#xa;+ Model: string { get; }&#xa;+ BatterySize: int { get; }&#xa;+ InstalledSoftware: List&lt;string&gt; { get; }" style="text;strokeColor=none;fillColor=none;align=left;verticalAlign=top;spacingLeft=4;spacingRight=4;overflow=hidden;rotatable=0;points=[[0,0.5],[1,0.5]];portConstraint=eastwest;fontSize=12;" vertex="1" parent="z8BJtcq0WtnQSYPv6Kyj-181">
          <mxGeometry y="26" width="270" height="64" as="geometry" />
        </mxCell>
        <mxCell id="z8BJtcq0WtnQSYPv6Kyj-183" value="" style="line;strokeWidth=1;fillColor=none;align=left;verticalAlign=middle;spacingTop=-1;spacingLeft=3;spacingRight=3;rotatable=0;labelPosition=right;points=[];portConstraint=eastwest;strokeColor=inherit;fontSize=16;" vertex="1" parent="z8BJtcq0WtnQSYPv6Kyj-181">
          <mxGeometry y="90" width="270" height="8" as="geometry" />
        </mxCell>
        <mxCell id="z8BJtcq0WtnQSYPv6Kyj-184" value="+ InstallSoftware(softwareName: string): void&#xa;+ ConnectToInternet(): void&#xa;+ GetInfo(): string" style="text;strokeColor=none;fillColor=none;align=left;verticalAlign=top;spacingLeft=4;spacingRight=4;overflow=hidden;rotatable=0;points=[[0,0.5],[1,0.5]];portConstraint=eastwest;fontSize=12;" vertex="1" parent="z8BJtcq0WtnQSYPv6Kyj-181">
          <mxGeometry y="98" width="270" height="52" as="geometry" />
        </mxCell>
      </root>
    </mxGraphModel>
  </diagram>
</mxfile>
